<?xml version="1.0" encoding="utf-8"?>
<!-- Generator: Adobe Illustrator 18.1.1, SVG Export Plug-In . SVG Version: 6.00 Build 0)  -->
<svg version="1.1" id="Layer_1" xmlns="http://www.w3.org/2000/svg" xmlns:xlink="http://www.w3.org/1999/xlink" x="0px" y="0px"
	 viewBox="0 0 237.1 125" enable-background="new 0 0 237.1 125" xml:space="preserve">
<g>
	<g>
		<path fill="#6E6F71" d="M135.9,96.8c0,2.4-1.5,3.8-3.6,3.8c-2.1,0-3.4-1.6-3.4-3.7c0-2.2,1.4-3.8,3.5-3.8
			C134.6,93.2,135.9,94.8,135.9,96.8z M130.4,96.9c0,1.5,0.8,2.6,2.1,2.6c1.3,0,2-1.2,2-2.7c0-1.4-0.7-2.6-2-2.6
			C131.1,94.2,130.4,95.4,130.4,96.9z"/>
		<path fill="#6E6F71" d="M137.1,96.8c0-0.6,0-1.1,0-1.6h1.2l0.1,0.8h0c0.2-0.4,0.8-0.9,1.7-0.9c0.9,0,1.9,0.6,1.9,2.2v3.1h-1.4
			v-2.9c0-0.8-0.3-1.3-1-1.3c-0.5,0-0.9,0.4-1.1,0.8c0,0.1-0.1,0.3-0.1,0.4v3.1h-1.4V96.8z"/>
		<path fill="#6E6F71" d="M144.3,98.3c0,0.9,0.8,1.4,1.7,1.4c0.6,0,1.1-0.1,1.5-0.2l0.2,0.9c-0.5,0.2-1.1,0.3-1.9,0.3
			c-1.7,0-2.8-1-2.8-2.6c0-1.4,0.9-2.8,2.6-2.8c1.7,0,2.3,1.4,2.3,2.5c0,0.2,0,0.4,0,0.6H144.3z M146.7,97.3c0-0.5-0.2-1.3-1.1-1.3
			c-0.8,0-1.2,0.7-1.2,1.3H146.7z"/>
		<path fill="#6E6F71" d="M157.3,100.2c-0.5,0.2-1.4,0.4-2.4,0.4c-1.3,0-2.2-0.3-2.9-1c-0.7-0.6-1-1.6-1-2.7c0-2.3,1.7-3.8,4.1-3.8
			c0.9,0,1.6,0.2,2,0.3l-0.3,1.1c-0.4-0.2-0.9-0.3-1.7-0.3c-1.6,0-2.7,0.9-2.7,2.6c0,1.6,1,2.6,2.6,2.6c0.5,0,0.8-0.1,1-0.2v-1.8
			h-1.3v-1h2.6V100.2z"/>
		<path fill="#6E6F71" d="M158.7,97c0-0.7,0-1.2,0-1.7h1.2l0,1h0c0.3-0.7,0.9-1.1,1.5-1.1c0.1,0,0.2,0,0.3,0v1.2c-0.1,0-0.2,0-0.4,0
			c-0.6,0-1.1,0.4-1.2,1c0,0.1,0,0.3,0,0.4v2.7h-1.4V97z"/>
		<path fill="#6E6F71" d="M167.6,97.8c0,1.9-1.4,2.8-2.8,2.8c-1.5,0-2.7-1-2.7-2.7c0-1.7,1.2-2.8,2.8-2.8
			C166.5,95.2,167.6,96.3,167.6,97.8z M163.6,97.9c0,1,0.5,1.8,1.3,1.8c0.8,0,1.3-0.7,1.3-1.8c0-0.8-0.4-1.7-1.3-1.7
			C163.9,96.1,163.6,97,163.6,97.9z"/>
		<path fill="#6E6F71" d="M173.5,98.9c0,0.6,0,1.1,0,1.6h-1.2l-0.1-0.8h0c-0.2,0.4-0.8,0.9-1.7,0.9c-1,0-1.9-0.6-1.9-2.3v-3.1h1.4
			v2.8c0,0.9,0.3,1.4,1,1.4c0.5,0,0.9-0.4,1-0.7c0-0.1,0.1-0.3,0.1-0.4v-3.2h1.4V98.9z"/>
		<path fill="#6E6F71" d="M175,97c0-0.7,0-1.2,0-1.7h1.2l0.1,0.8h0c0.4-0.6,1-0.9,1.8-0.9c1.2,0,2.3,1,2.3,2.7
			c0,1.9-1.2,2.8-2.4,2.8c-0.7,0-1.2-0.3-1.5-0.7h0v2.7H175V97z M176.3,98.3c0,0.1,0,0.2,0,0.4c0.1,0.5,0.6,0.9,1.2,0.9
			c0.9,0,1.4-0.7,1.4-1.7c0-0.9-0.5-1.7-1.3-1.7c-0.6,0-1.1,0.4-1.2,1c0,0.1-0.1,0.2-0.1,0.3V98.3z"/>
		<path fill="#6E6F71" d="M180.9,99.8c0-0.5,0.4-0.8,0.8-0.8c0.5,0,0.8,0.3,0.8,0.8c0,0.5-0.3,0.8-0.8,0.8
			C181.2,100.6,180.9,100.3,180.9,99.8z"/>
		<path fill="#6E6F71" d="M192.6,96.8c0,2.4-1.5,3.8-3.6,3.8c-2.1,0-3.4-1.6-3.4-3.7c0-2.2,1.4-3.8,3.5-3.8
			C191.3,93.2,192.6,94.8,192.6,96.8z M187,96.9c0,1.5,0.8,2.6,2.1,2.6c1.3,0,2-1.2,2-2.7c0-1.4-0.7-2.6-2-2.6
			C187.8,94.2,187,95.4,187,96.9z"/>
		<path fill="#6E6F71" d="M193.7,96.8c0-0.6,0-1.1,0-1.6h1.2l0.1,0.8h0c0.2-0.4,0.8-0.9,1.7-0.9c0.9,0,1.9,0.6,1.9,2.2v3.1h-1.4
			v-2.9c0-0.8-0.3-1.3-1-1.3c-0.5,0-0.9,0.4-1.1,0.8c0,0.1-0.1,0.3-0.1,0.4v3.1h-1.4V96.8z"/>
		<path fill="#6E6F71" d="M201,98.3c0,0.9,0.8,1.4,1.7,1.4c0.6,0,1.1-0.1,1.5-0.2l0.2,0.9c-0.5,0.2-1.1,0.3-1.9,0.3
			c-1.7,0-2.8-1-2.8-2.6c0-1.4,0.9-2.8,2.6-2.8c1.7,0,2.3,1.4,2.3,2.5c0,0.2,0,0.4,0,0.6H201z M203.3,97.3c0-0.5-0.2-1.3-1.1-1.3
			c-0.8,0-1.2,0.7-1.2,1.3H203.3z"/>
		<path fill="#6E6F71" d="M208,93.3h4.3v1.1h-2.9v2h2.7v1.1h-2.7v3.1H208V93.3z"/>
		<path fill="#6E6F71" d="M218.4,97.8c0,1.9-1.4,2.8-2.8,2.8c-1.5,0-2.7-1-2.7-2.7c0-1.7,1.2-2.8,2.8-2.8
			C217.3,95.2,218.4,96.3,218.4,97.8z M214.3,97.9c0,1,0.5,1.8,1.3,1.8c0.8,0,1.3-0.7,1.3-1.8c0-0.8-0.4-1.7-1.3-1.7
			C214.7,96.1,214.3,97,214.3,97.9z"/>
		<path fill="#6E6F71" d="M223.4,100.3c-0.3,0.1-0.8,0.3-1.5,0.3c-1.7,0-2.8-1-2.8-2.7c0-1.6,1.1-2.8,3-2.8c0.5,0,1,0.1,1.3,0.2
			l-0.2,1c-0.2-0.1-0.5-0.2-1-0.2c-1,0-1.7,0.7-1.6,1.7c0,1.1,0.7,1.7,1.6,1.7c0.5,0,0.8-0.1,1.1-0.2L223.4,100.3z"/>
		<path fill="#6E6F71" d="M229.2,98.9c0,0.6,0,1.1,0,1.6h-1.2l-0.1-0.8h0c-0.2,0.4-0.8,0.9-1.7,0.9c-1,0-1.9-0.6-1.9-2.3v-3.1h1.4
			v2.8c0,0.9,0.3,1.4,1,1.4c0.5,0,0.9-0.4,1-0.7c0-0.1,0.1-0.3,0.1-0.4v-3.2h1.4V98.9z"/>
		<path fill="#6E6F71" d="M230.6,99.3c0.3,0.2,0.9,0.4,1.4,0.4c0.6,0,0.9-0.2,0.9-0.6c0-0.4-0.2-0.5-0.9-0.8c-1-0.4-1.5-0.9-1.5-1.5
			c0-0.9,0.8-1.6,2-1.6c0.6,0,1.1,0.2,1.4,0.3l-0.3,0.9c-0.2-0.1-0.7-0.3-1.1-0.3c-0.5,0-0.7,0.2-0.7,0.5c0,0.3,0.3,0.5,0.9,0.7
			c1,0.3,1.4,0.8,1.4,1.6c0,0.9-0.8,1.6-2.2,1.6c-0.6,0-1.2-0.2-1.6-0.4L230.6,99.3z"/>
		<path fill="#6E6F71" d="M235,99.8c0-0.5,0.4-0.8,0.8-0.8c0.5,0,0.8,0.3,0.8,0.8c0,0.5-0.3,0.8-0.8,0.8
			C235.3,100.6,235,100.3,235,99.8z"/>
	</g>
	<path fill="#B2B4B6" d="M121.9,43.2c10.7,32.8-7.3,68.1-40.1,78.8C49,132.6,13.8,114.7,3.1,81.8C-7.6,49,10.3,13.8,43.2,3.1
		C76-7.6,111.2,10.4,121.9,43.2z"/>
	<path fill="#FFFFFF" d="M118.2,45.4c8.6,26.4-5.8,54.7-32.2,63.3c-26.4,8.6-54.7-5.8-63.3-32.2c-8.6-26.4,5.8-54.7,32.2-63.3
		C81.3,4.5,109.6,19,118.2,45.4z"/>
	<path fill="#006E9F" d="M64,6.6C31.4,6.6,4.9,33,4.9,65.7c0,32.6,26.4,59.1,59,59.2c32.6,0,59.1-26.4,59.2-59
		C123.1,33.2,96.7,6.7,64,6.6z M119.1,66.7c0,26.2-21.3,47.5-47.6,47.4c-26.2,0-47.5-21.3-47.4-47.6c0-26.2,21.3-47.5,47.6-47.4
		C97.9,19.2,119.1,40.4,119.1,66.7z"/>
	<g>
		<g>
			<path fill="#231F20" d="M130.1,73.7c1.7,0.8,4.3,1.7,6.9,1.7c2.9,0,4.4-1.2,4.4-2.9c0-1.7-1.3-2.6-4.6-3.8c-4.6-1.6-7.6-4-7.6-8
				c0-4.6,3.9-8.1,10.5-8.1c3.1,0,5.4,0.6,7.1,1.4l-1.4,4.9c-1.1-0.5-3.1-1.3-5.8-1.3c-2.7,0-4,1.2-4,2.6c0,1.7,1.6,2.5,5.1,3.8
				c4.9,1.8,7.2,4.2,7.2,8c0,4.5-3.6,8.4-11.2,8.4c-3.2,0-6.3-0.8-7.8-1.6L130.1,73.7z"/>
			<path fill="#231F20" d="M157.4,58.2h-7.4V53h21.3v5.1h-7.6V80h-6.3V58.2z"/>
			<path fill="#231F20" d="M178,73.1l-2,6.9h-6.5l8.5-27h8.2l8.6,27h-6.7l-2.1-6.9H178z M185.1,68.5l-1.7-5.7
				c-0.5-1.6-1-3.6-1.4-5.2h-0.1c-0.4,1.6-0.8,3.6-1.3,5.2l-1.6,5.7H185.1z"/>
			<path fill="#231F20" d="M198.6,53h16.9v5h-10.6v6.2h9.9v5h-9.9V80h-6.3V53z"/>
			<path fill="#231F20" d="M220.2,53h16.9v5h-10.6v6.2h9.9v5h-9.9V80h-6.3V53z"/>
		</g>
	</g>
	<g>
		<path fill="#006E9F" d="M64.9,65.6c0,9.2-5.7,14.8-14.1,14.8c-8.5,0-13.5-6.3-13.5-14.3c0-8.4,5.5-14.7,14-14.7
			C60.1,51.4,64.9,57.8,64.9,65.6z M44.1,65.9c0,5.5,2.7,9.4,7,9.4c4.4,0,6.9-4.1,6.9-9.5c0-5-2.5-9.4-7-9.4
			C46.7,56.4,44.1,60.5,44.1,65.9z"/>
		<path fill="#006E9F" d="M68.2,79.9V53.6h7.1l5.6,9.6c1.6,2.8,3.2,6,4.4,9h0.1c-0.4-3.5-0.5-7-0.5-11v-7.7h5.6v26.3h-6.4l-5.8-10.1
			c-1.6-2.8-3.4-6.2-4.7-9.3l-0.1,0c0.2,3.5,0.2,7.2,0.2,11.5v7.9H68.2z"/>
		<path fill="#006E9F" d="M111.2,68.8h-9.9V75h11.1v4.9H95.1V53.6h16.7v4.9h-10.5v5.5h9.9V68.8z"/>
	</g>
</g>
</svg>
